<?xml version="1.0" encoding="UTF-8" standalone="no"?>
<svg
   width="432.66687"
   height="525.70319"
   viewBox="0 0 114.47644 139.09231"
   xmlns="http://www.w3.org/2000/svg"
   xmlns:svg="http://www.w3.org/2000/svg">
  <path
     d="M 263.63672 0.091796875 A 5.6692912 5.6692912 0 0 0 257.04492 4.6523438 C 255.9542 10.645292 255.37005 16.008038 255.06836 21.068359 A 5.6692912 5.6692912 0 0 0 252.94727 24.251953 A 5.6692912 5.6692912 0 0 0 254.82227 29.726562 C 254.86507 38.146577 255.62059 45.949843 256.29883 54.458984 C 257.58353 70.578174 258.58918 89.761212 253.98828 123.29492 A 5.6698582 5.6698582 0 0 0 258.81641 129.67969 C 278.08281 132.3796 298.6851 136.05807 313.2793 143.18164 C 320.57649 146.74347 326.28799 151.08887 329.93359 156.31445 C 333.5549 161.50517 335.36566 167.61236 334.66406 175.89844 C 325.43926 228.88163 301.81841 268.00815 275.00391 290.62109 C 275.84251 273.34877 273.03633 256.94906 270.36133 244.12891 A 5.6698582 5.6698582 0 0 0 264.24219 239.64844 C 246.66239 241.42599 233.48579 245.95731 222.96289 249.11914 C 212.43999 252.28098 205.07465 253.90843 197.56055 251.62109 A 5.6698582 5.6698582 0 0 0 190.82812 254.52344 C 180.22133 275.87898 174.14498 297.54753 176.05078 317.80859 C 155.45238 300.99276 129.95787 284.55421 129.38867 246.9043 C 129.02958 223.16131 134.55836 194.73188 145.22266 174.45117 C 150.55476 164.31081 157.12363 156.28166 164.46094 151.56836 C 171.79813 146.85507 179.76711 145.14121 189.63281 147.625 A 5.6698582 5.6698582 0 0 0 196.65234 141.52148 C 193.44524 111.82909 194.45554 98.964868 194.43164 85.072266 C 194.40864 71.179705 193.25211 56.641369 185.81641 25.744141 A 5.6698582 5.6698582 0 0 0 180.24414 21.402344 C 126.37234 21.978414 90.625014 50.222182 68.541016 80.576172 C 46.347615 111.08062 22.626553 129.30468 10.689453 190.73633 C 1.3182535 238.96254 -7.3012715 279.65709 9.7363281 324.17188 C 21.483428 354.98666 46.608994 389.41431 77.621094 413.58008 C 105.5993 435.38175 138.94475 448.95588 171.23438 441.78125 C 162.76772 476.4685 176.615 507.26964 181.64453 521.87891 A 5.6698582 5.6698582 0 0 0 190.3418 524.61914 C 203.624 514.94329 225.9975 510.05392 247.97852 508.4082 C 269.95953 506.76245 291.52923 508.11153 303.39453 509.42578 A 5.6692912 5.6692912 0 0 0 309.6543 504.41406 A 5.6692912 5.6692912 0 0 0 304.64258 498.16211 C 303.0622 497.98708 301.32649 497.81153 299.45898 497.64258 C 298.47363 494.15065 297.55458 488.76673 296.99414 482.82227 C 296.29081 475.36212 296.00586 466.91248 296.00586 459.32617 C 296.00586 445.93429 292.91627 436.06733 288.07617 424.66797 C 318.28439 420.57542 349.3949 396.18787 372.40039 375.42969 C 385.10002 363.97069 390.4007 356.08101 393.88867 348.36133 C 397.37665 340.64168 399.04818 333.85829 405.87695 322.20703 C 413.80425 308.68143 417.32808 290.14356 419.82812 272.53516 C 422.32813 254.92679 423.74884 237.9848 425.86719 229.78516 C 430.74217 210.91522 437.73226 177.94191 427.08594 121.80273 C 421.22427 90.893683 390.12626 68.667813 355.80664 52.244141 C 324.51175 37.267939 289.94928 27.221399 266.375 21.544922 C 266.65283 16.988233 267.20319 12.1453 268.19727 6.6835938 A 5.6692912 5.6692912 0 0 0 263.63672 0.091796875 z "
     transform="scale(0.26458334)" />
</svg>
